PathFileType	4	(X/Y/Z)	Patient4_TMGait_0pt2_02_left_15.trc.trc
DataRate	CameraRate	NumFrames	NumMarkers	Units	OrigDataRate	OrigDataStartFrame	OrigNumFrames
42.424242424242	42.424242424242	4	33	mm	42.424242424242	71	       141
Frame#	Time	R.Midfoot.Superior			Sacral			L.Shoulder			Chest			R.Shoulder			Neck			R.ASIS			L.ASIS			R.Thigh.Superior			R.Thigh.Lateral			R.Thigh.Inferior			R.Patella			L.Thigh.Superior			L.Thigh.Lateral			L.Thigh.Inferior			L.Patella			L.Shank.Superior			L.Shank.Lateral			L.Shank.Inferior			R.Shank.Superior			R.Shank.Lateral			R.Shank.Inferior			R.Heel			R.Midfoot.Lateral			R.Toe			L.Heel			L.Midfoot.Lateral			L.Midfoot.Superior			L.Toe			L.Elbow			L.Wrist			R.Elbow			R.Wrist			
		X1	Y1	Z1	X2	Y2	Z2	X3	Y3	Z3	X4	Y4	Z4	X5	Y5	Z5	X6	Y6	Z6	X7	Y7	Z7	X8	Y8	Z8	X9	Y9	Z9	X10	Y10	Z10	X11	Y11	Z11	X12	Y12	Z12	X13	Y13	Z13	X14	Y14	Z14	X15	Y15	Z15	X16	Y16	Z16	X17	Y17	Z17	X18	Y18	Z18	X19	Y19	Z19	X20	Y20	Z20	X21	Y21	Z21	X22	Y22	Z22	X23	Y23	Z23	X24	Y24	Z24	X25	Y25	Z25	X26	Y26	Z26	X27	Y27	Z27	X28	Y28	Z28	X29	Y29	Z29	X30	Y30	Z30	X31	Y31	Z31	X32	Y32	Z32	X33	Y33	Z33	

71	35.900000000000	1223.522375563394	118.645367394877	629.490620790908	858.106700455026	1010.363691602593	372.945594045654	1110.802628310295	1426.200672675887	232.436511125777	1156.148788984783	1356.903928486611	416.556972686504	1034.782761087868	1444.878294670744	556.286109856957	1047.982042480313	1492.733480925341	377.933356397670	1059.288929301962	944.293704695981	537.308437995266	1098.004349806215	955.436167697880	264.007873904883	1131.714899111587	769.630704883350	520.611572123306	1078.607171113523	654.873253464204	598.801004183876	1168.116819065522	607.726836278962	526.948493114662	1196.447459365887	523.350198970649	551.523814037719	1122.979521511027	738.124657629015	305.131255430984	1036.995841227137	620.715879588780	239.612675729786	1105.621716244572	544.606398428914	319.555503341506	1100.114807051837	474.589537009032	331.591866865665	1062.728507067074	403.835492217508	323.277987825721	966.871068472963	297.610206604301	267.468491947567	992.859171328517	185.755458452326	348.336565690915	1173.028758056803	435.210500539385	570.222529857538	1108.259043086765	336.716376417498	647.584744149440	1166.065053821202	236.671893101345	605.381389678684	1049.632576656646	58.197178366051	601.905214099981	1139.313679996405	50.491598352072	668.752991569953	1345.269083697905	70.718161816107	647.023847603814	846.805302976505	39.503164647505	385.728771736087	924.608110825185	35.863108786106	308.821737547888	1007.643568155912	95.412610417059	340.043709325913	1136.759454280371	40.724148386393	317.138958225542	1283.543669196722	1166.808784631017	76.986977605502	1544.636761750787	1144.492793973485	94.253258941466	829.369660036392	1163.862209824401	627.122638958329	761.151516456232	909.154382454092	618.565398114189	
72	35.923571428571	1232.916733171011	116.973989608475	631.373424837262	858.794352613237	1010.193132371918	374.142481087325	1111.980763745270	1425.761484705424	235.133201999748	1156.132492790835	1356.756644721382	419.612468221617	1033.950649039455	1444.968886681794	558.448788009816	1048.185144206695	1492.535984815013	380.004081068825	1058.702310714965	943.494815319342	539.675764430530	1099.411974423932	955.518831822297	266.406204111076	1129.783640305875	767.148872628875	524.155835905764	1073.381256153282	652.857089545787	601.387042763552	1163.293263671436	605.146250738172	530.710188383199	1190.437702407937	522.640359436705	554.218280971149	1121.920970878607	737.337103611623	307.030366562967	1034.775275654703	620.943543464510	240.434788012815	1102.169779974116	543.839773470644	320.146731425917	1095.797382742246	474.014965305266	331.944236397308	1058.466473958229	403.622092162741	323.497320534751	962.374786705598	297.656149141729	267.595670826190	988.260893530936	185.654121634406	348.362411820599	1170.427248080719	434.377338802153	572.871180096299	1109.640552333642	333.399599671014	650.668657667526	1170.784020001118	235.335463526936	607.971378968532	1059.719398710249	54.482167328013	604.847626845429	1149.878193566277	47.755566788198	671.030196490402	1355.391006309685	70.558054381720	647.961291409399	842.047915833228	39.437274005854	385.725214007791	919.830227075049	35.795803895851	308.817378394360	1002.866679702166	95.351533737335	340.047712705305	1132.008280390373	40.705450389458	317.139220026602	1287.666148116461	1168.328662718074	81.014858305782	1549.027805760422	1152.169322508410	99.834605507512	829.948899055608	1162.541315036116	628.016322183949	764.544860098573	906.968451479846	617.844209432323	
73	35.947142857143	1238.654809748571	115.175035175299	632.521686173400	859.707924134754	1009.668926780012	376.051241058800	1112.916054922295	1425.119325207205	238.192761266022	1156.370896975250	1356.342955260384	422.886576705105	1033.647149335838	1444.617668389593	561.181303212169	1048.525735845740	1492.056010910578	382.631557776065	1058.697674570637	942.319829742076	542.197506725478	1100.830464904940	955.402712695528	268.998556901677	1128.724911543723	764.459137711740	527.553400044500	1069.305406179652	650.540204291329	603.692275080581	1159.595900941813	602.477554033480	534.001731770240	1185.398659843354	521.413505568403	556.485435641119	1121.288863998309	736.449479283958	309.112440835719	1033.056134977238	620.998285757250	241.591246454400	1099.346079140030	542.969339581586	321.009696106734	1092.190584900761	473.250945673561	332.552523939551	1054.754780523825	403.210091567586	323.975579290163	958.257850290147	297.698131076697	267.907673390307	983.854296318188	185.462370544836	348.478808860442	1167.949475192438	433.021794623641	575.097671116440	1110.052172594370	330.427725791412	653.101767262511	1173.352753411105	233.963607274972	609.915574058849	1065.872630575693	52.380571399219	606.951323060621	1156.223198816620	45.924175743929	672.623845344997	1361.214185279716	69.174977442207	648.400420732681	837.296150617772	39.374409936971	385.718980238590	915.058885248684	35.729266738811	308.819980295480	998.102256884257	95.286209822042	340.065710238252	1127.267580400557	40.679763577327	317.133413529631	1290.994666226678	1169.197621037017	85.234731633157	1552.462694151946	1158.341116657830	105.260534025796	831.472955069977	1160.388657711184	629.908168059902	769.172844144940	903.905840449986	618.338348829718	
74	35.970714285714	1241.073453079700	113.151402794772	632.948359407079	860.875888198374	1008.880225966623	378.645330890101	1113.666188960186	1424.360193842198	241.634301650627	1156.896324784291	1355.747547186916	426.409237825871	1033.881984215813	1443.919382218523	564.498336377956	1049.025204522065	1491.372174839362	385.841617980063	1059.284658748171	940.866472320636	544.913299034523	1102.311265868300	955.135496802882	271.827851311730	1128.496580918117	761.645181803201	530.821359820907	1066.398958889698	648.002882901322	605.746852276354	1157.024497706046	599.797985388539	536.814076197360	1181.392776138793	519.745582118125	558.341449947356	1121.087887430359	735.478332258335	311.405127745904	1031.814423879056	620.912094631164	243.101031636868	1097.108323618642	542.011573741243	322.172535701791	1089.240366274096	472.324235571293	333.444702355986	1051.547294935177	402.631794907090	324.726543706275	954.490845574745	297.758534692308	268.408077879934	979.616530598933	185.201646257676	348.688435236993	1165.694464109262	431.182658855175	576.911872393388	1109.606812732106	327.674297843109	654.896472946568	1174.019702878464	232.365764453761	611.212811418887	1068.440456963889	51.256585164046	608.246277853154	1158.792350263145	44.630368212056	673.578888758894	1363.321855531834	66.793485843927	648.400420889823	832.550519595739	39.326810825649	385.702168889867	910.295516389218	35.669873869158	308.826301429112	993.352436127998	95.221206908384	340.092741104343	1122.536066246385	40.646755222486	317.121676310272	1293.544659016532	1169.501942172749	89.585987331358	1555.012012235668	1163.092252635659	110.462247988603	833.771325302878	1157.706984554572	632.791855318723	774.637848947308	900.341290029522	620.044000681649	
